<!DOCTYPE svg PUBLIC "-//W3C//DTD SVG 1.1//EN" "http://www.w3.org/Graphics/SVG/1.1/DTD/svg11.dtd">
<!-- Uploaded to: SVG Repo, www.svgrepo.com, Transformed by: SVG Repo Mixer Tools -->
<svg height="130px" width="130px" version="1.1" id="Layer_1" xmlns="http://www.w3.org/2000/svg" xmlns:xlink="http://www.w3.org/1999/xlink" viewBox="0 0 511.999 511.999" xml:space="preserve" fill="#000000">
<g id="SVGRepo_bgCarrier" stroke-width="0"/>
<g id="SVGRepo_tracerCarrier" stroke-linecap="round" stroke-linejoin="round"/>
<g id="SVGRepo_iconCarrier"> <g> <path style="fill:#F2962E;" d="M267.822,58.262c3.852-9.065,9.194-15.926,14.967-21.138c-9.337-19.646-26.79-28.582-26.79-28.582 s-32.188,16.445-32.529,53.839c10.309-3.06,21.225-4.711,32.529-4.711c5.612,0,11.127,0.409,16.521,1.193 C270.954,58.633,269.389,58.426,267.822,58.262z"/> <path style="fill:#F2962E;" d="M223.471,62.381c0.09-9.85,2.4-18.232,5.738-25.257C213.065,22.547,193.52,20.97,193.52,20.97 s-23.444,27.511-9.45,62.189c8.354-6.773,17.807-12.475,28.249-16.801c5.184-2.148,10.436-3.88,15.718-5.219 C226.506,61.525,224.98,61.933,223.471,62.381z"/> <path style="fill:#F2962E;" d="M184.071,83.159c-3.686-9.134-4.76-17.762-4.363-25.531c-20.493-7.29-39.154-1.268-39.154-1.268 s-11.132,34.388,15.068,61.071c5.126-9.454,11.677-18.34,19.67-26.333c3.968-3.968,8.157-7.579,12.525-10.838 C186.548,81.206,185.294,82.168,184.071,83.159z"/> <path style="fill:#F2962E;" d="M155.622,117.433c-6.901-7.028-11.195-14.589-13.802-21.917 c-21.723,1.108-36.659,13.813-36.659,13.813s2.876,36.031,37.292,50.656c1.118-10.696,3.77-21.413,8.096-31.855 c2.148-5.186,4.637-10.125,7.426-14.809C157.165,114.679,156.373,116.048,155.622,117.433z"/> <path style="fill:#F2962E;" d="M143.056,155.284c-0.23,1.567-0.437,3.133-0.601,4.7c-9.065-3.852-15.926-9.194-21.138-14.967 c-19.646,9.337-28.582,26.79-28.582,26.79s16.445,32.188,53.839,32.529c-3.06-10.309-4.711-21.225-4.711-32.529 C141.862,166.195,142.271,160.679,143.056,155.284z"/> <path style="fill:#F2962E;" d="M150.55,215.485c-2.148-5.186-3.881-10.438-5.22-15.722c0.387,1.535,0.795,3.062,1.244,4.573 c-9.85-0.09-18.232-2.4-25.257-5.738c-14.577,16.144-16.154,35.689-16.154,35.689s27.511,23.444,62.189,9.45 C160.579,235.381,154.876,225.928,150.55,215.485z"/> <path style="fill:#F2962E;" d="M175.292,252.515c-3.969-3.969-7.58-8.159-10.84-12.527c0.945,1.271,1.906,2.525,2.899,3.749 c-9.134,3.686-17.762,4.76-25.531,4.363c-7.29,20.493-1.268,39.154-1.268,39.154s34.388,11.132,61.071-15.069 C192.17,267.058,183.285,260.507,175.292,252.515z"/> <path style="fill:#F2962E;" d="M212.321,277.256c-5.185-2.148-10.123-4.636-14.807-7.425c1.359,0.811,2.727,1.602,4.111,2.353 c-7.028,6.901-14.589,11.195-21.917,13.802c1.108,21.723,13.813,36.659,13.813,36.659s36.031-2.876,50.656-37.292 C233.48,284.233,222.763,281.582,212.321,277.256z"/> <path style="fill:#F2962E;" d="M256,285.945c-5.613,0-11.129-0.409-16.523-1.193c1.567,0.23,3.134,0.437,4.701,0.601 c-3.852,9.065-9.194,15.926-14.967,21.138c9.337,19.646,26.79,28.582,26.79,28.582s32.188-16.445,32.529-53.839 C278.219,284.293,267.303,285.945,256,285.945z"/> </g> <path style="fill:#B84B41;" d="M256,335.073c0,0-6-3.077-12.844-9.576v178.898h25.688V325.51C261.999,332,256,335.073,256,335.073z"/> <g> <path style="fill:#F2962E;" d="M327.928,260.456c-8.354,6.773-17.807,12.475-28.249,16.801c-5.185,2.148-10.437,3.881-15.721,5.22 c1.535-0.387,3.062-0.795,4.572-1.243c-0.09,9.85-2.4,18.232-5.738,25.257c16.144,14.577,35.689,16.154,35.689,16.154 S341.923,295.134,327.928,260.456z"/> <path style="fill:#F2962E;" d="M356.377,226.182c-5.126,9.454-11.677,18.34-19.67,26.333c-3.969,3.969-8.159,7.581-12.528,10.841 c1.271-0.945,2.526-1.907,3.75-2.9c3.686,9.134,4.76,17.762,4.363,25.531c20.493,7.29,39.154,1.268,39.154,1.268 S382.577,252.865,356.377,226.182z"/> <path style="fill:#F2962E;" d="M356.377,226.182c6.901,7.028,11.195,14.589,13.802,21.917 c21.723-1.108,36.659-13.813,36.659-13.813s-2.876-36.031-37.292-50.656c-1.118,10.696-3.77,21.413-8.096,31.855 c-2.148,5.185-4.636,10.123-7.425,14.807C354.835,228.933,355.626,227.566,356.377,226.182z"/> <path style="fill:#F2962E;" d="M365.426,139.279c3.06,10.309,4.711,21.225,4.711,32.529c0,5.613-0.41,11.13-1.194,16.524 c0.23-1.568,0.437-3.134,0.601-4.702c9.065,3.852,15.926,9.194,21.138,14.967c19.646-9.337,28.582-26.79,28.582-26.79 S402.82,139.62,365.426,139.279z"/> <path style="fill:#F2962E;" d="M365.426,139.279c9.85,0.09,18.232,2.4,25.257,5.738c14.577-16.144,16.154-35.689,16.154-35.689 s-27.511-23.444-62.189-9.45c6.773,8.353,12.475,17.807,16.801,28.249c2.148,5.186,3.882,10.439,5.221,15.724 C366.283,142.317,365.874,140.789,365.426,139.279z"/> <path style="fill:#F2962E;" d="M344.648,99.879c9.134-3.686,17.762-4.76,25.531-4.363c7.29-20.493,1.268-39.154,1.268-39.154 s-34.388-11.132-61.071,15.069c9.454,5.126,18.34,11.677,26.333,19.67c3.968,3.968,7.579,8.157,10.838,12.526 C346.601,102.356,345.639,101.102,344.648,99.879z"/> <path style="fill:#F2962E;" d="M310.374,71.43c7.028-6.901,14.589-11.195,21.917-13.802c-1.108-21.723-13.813-36.659-13.813-36.659 s-36.031,2.876-50.656,37.292c10.696,1.118,21.413,3.77,31.855,8.096c5.185,2.148,10.125,4.636,14.809,7.426 C313.127,72.971,311.759,72.181,310.374,71.43z"/> </g> <g> <path style="fill:#51AA5B;" d="M322.293,362.173c-29.519,0-53.45,23.93-53.45,53.45v53.45h53.45c29.519,0,53.45-23.93,53.45-53.45 v-53.45H322.293z"/> <path style="fill:#51AA5B;" d="M189.706,362.173c29.519,0,53.45,23.93,53.45,53.45v53.45h-53.45c-29.519,0-53.45-23.93-53.45-53.45 v-53.45H189.706z"/> </g> <g> <path style="fill:#95E49C;" d="M322.293,446.256h-23.028v-15.21h23.028c8.506,0,15.424-6.92,15.424-15.424v-23.028h15.21v23.028 C352.927,432.513,339.184,446.256,322.293,446.256z"/> <path style="fill:#95E49C;" d="M212.735,446.256h-23.028c-16.891,0-30.634-13.743-30.634-30.634v-23.028h15.21v23.028 c0,8.505,6.919,15.424,15.424,15.424h23.028L212.735,446.256L212.735,446.256z"/> </g> <circle style="fill:#D6374C;" cx="255.957" cy="171.804" r="114.097"/> <path style="fill:#B84B41;" d="M307.471,237.7c-14.212,11.135-32.102,17.781-51.515,17.781c-46.138,0-83.673-37.536-83.673-83.673 s37.536-83.673,83.673-83.673s83.674,37.536,83.674,83.673c0,19.433-6.659,37.338-17.814,51.557"/> <g> <path style="fill:#7A1B2E;" d="M426.033,175.273l1.772-3.463l-1.769-3.464c-0.479-0.937-7.967-15.196-23.9-25.655 c10.784-15.877,12.217-31.972,12.281-32.753l0.313-3.878l-2.961-2.523c-0.623-0.53-13.031-10.917-31.908-14.506 c3.905-18.818-0.938-34.262-1.178-35.007l-1.195-3.702l-3.7-1.199c-0.343-0.111-8.532-2.719-20.033-2.719 c-4.427,0-9.538,0.39-14.998,1.527c-3.594-18.88-13.978-31.295-14.486-31.891l-2.52-2.963l-3.878,0.309 c-1.048,0.083-17.088,1.545-32.847,12.263c-10.542-16.04-24.863-23.523-25.56-23.88L256.004,0l-3.464,1.769 c-0.937,0.479-15.196,7.967-25.655,23.899c-15.878-10.784-31.972-12.217-32.753-12.28l-3.878-0.313l-2.522,2.96 c-0.682,0.801-10.997,13.172-14.562,31.895c-4.835-1.001-9.837-1.513-14.961-1.513c-11.481,0-19.651,2.594-19.993,2.704 l-3.701,1.195l-1.199,3.701c-0.323,1.001-5.119,16.378-1.246,35.041c-18.848,3.603-31.24,13.968-31.836,14.475l-2.963,2.521 l0.309,3.878c0.084,1.048,1.546,17.088,12.263,32.847c-16.039,10.543-23.522,24.864-23.879,25.56l-1.772,3.463l1.769,3.464 c0.479,0.937,7.967,15.196,23.9,25.655c-10.784,15.878-12.217,31.972-12.281,32.753l-0.313,3.878l2.962,2.523 c0.623,0.53,13.03,10.916,31.907,14.506c-3.905,18.818,0.938,34.263,1.178,35.008l1.196,3.702l3.7,1.198 c0.344,0.111,8.532,2.719,20.032,2.719c0.001,0,0.002,0,0.003,0c4.427,0,9.537-0.39,14.996-1.526 c3.594,18.88,13.978,31.294,14.486,31.891l2.52,2.963l3.878-0.309c1.048-0.083,17.088-1.545,32.847-12.263 c2.709,4.122,5.663,7.677,8.577,10.693v46.71c-11.198-12.736-27.592-20.796-45.844-20.796h-61.055v61.054 c0,33.665,27.39,61.055,61.055,61.055h45.844v35.323h40.899v-35.323h45.844c33.665,0,61.055-27.39,61.055-61.055v-61.054h-61.055 c-18.251,0-34.646,8.06-45.844,20.796v-46.629c2.947-3.034,5.933-6.628,8.665-10.79c15.878,10.784,31.972,12.217,32.753,12.28 l3.877,0.313l2.523-2.96c0.682-0.801,10.998-13.172,14.562-31.895c4.835,1.001,9.836,1.513,14.96,1.513h0.001 c11.48,0,19.651-2.595,19.992-2.704l3.701-1.195l1.199-3.7c0.323-1.001,5.119-16.378,1.246-35.041 c18.848-3.604,31.241-13.968,31.836-14.475l2.963-2.521l-0.309-3.878c-0.084-1.048-1.546-17.088-12.263-32.847 C418.194,190.291,425.678,175.97,426.033,175.273z M388.407,135.777c-3.935-1.442-8.201-2.576-12.81-3.281 c-0.347-0.054-0.697-0.098-1.045-0.147c-0.792-0.108-1.588-0.21-2.399-0.292c-0.374-0.039-0.747-0.084-1.124-0.117 c-0.786-2.267-1.639-4.511-2.555-6.722c-3.081-7.437-6.869-14.521-11.312-21.164c0.361-0.072,0.721-0.152,1.082-0.216 c0.165-0.029,0.331-0.059,0.497-0.087c0.82-0.137,1.642-0.257,2.465-0.353c0.06-0.007,0.12-0.015,0.179-0.022 c2.789-0.318,5.594-0.408,8.405-0.264l0.609,0.031c12.924,0.82,23.185,6.348,28.182,9.602 C397.499,117.863,394.801,127.056,388.407,135.777z M279.432,293.267c-0.829,3.432-1.992,6.762-3.512,9.959l-0.752,1.583 c-2.77,5.394-6.205,9.813-9.568,13.295l-1.991,1.887c-2.874,2.726-5.582,4.772-7.603,6.152 c-4.314-2.959-11.778-8.971-17.391-18.218c2.838-3.084,5.517-6.59,7.933-10.578c0.189-0.309,0.368-0.624,0.552-0.936 c0.397-0.679,0.79-1.367,1.171-2.074c0.18-0.333,0.366-0.662,0.541-0.999c10.462,0.616,20.903-0.114,31.07-2.14 c-0.06,0.3-0.114,0.602-0.178,0.901C279.619,292.494,279.526,292.88,279.432,293.267z M255.956,278.296 c-42.134,0-78.631-24.599-95.885-60.189c-0.074-0.154-0.148-0.309-0.222-0.464c-0.332-0.692-0.658-1.386-0.974-2.086 c-0.385-0.855-0.761-1.715-1.125-2.582c-0.146-0.347-0.286-0.698-0.428-1.046c-0.349-0.859-0.692-1.722-1.019-2.591 c-0.065-0.171-0.132-0.342-0.196-0.514c-0.423-1.141-0.828-2.29-1.213-3.445c-0.018-0.056-0.035-0.112-0.055-0.167 c-0.375-1.135-0.731-2.274-1.068-3.419c-0.025-0.085-0.052-0.17-0.076-0.256c-0.342-1.17-0.662-2.344-0.961-3.522 c-0.068-0.267-0.131-0.536-0.197-0.804c-0.147-0.6-0.294-1.201-0.43-1.803c-0.11-0.484-0.214-0.968-0.317-1.454 c-0.155-0.731-0.301-1.463-0.441-2.196c-0.065-0.342-0.135-0.681-0.197-1.025c-0.191-1.06-0.362-2.122-0.52-3.188 c-0.049-0.328-0.092-0.656-0.138-0.985c-0.122-0.876-0.233-1.754-0.333-2.633c-0.031-0.281-0.067-0.56-0.096-0.842 c-0.119-1.126-0.221-2.252-0.304-3.383c-0.016-0.223-0.027-0.448-0.043-0.671c-0.064-0.943-0.115-1.888-0.153-2.834 c-0.012-0.312-0.025-0.625-0.035-0.937c-0.036-1.15-0.062-2.301-0.062-3.454c0-1.162,0.025-2.327,0.064-3.491 c0.009-0.283,0.021-0.565,0.032-0.848c0.042-1.025,0.096-2.051,0.167-3.076c0.01-0.146,0.017-0.293,0.028-0.44 c0.086-1.173,0.193-2.344,0.317-3.513c0.024-0.232,0.053-0.462,0.079-0.694c0.106-0.94,0.226-1.877,0.357-2.812 c0.048-0.339,0.091-0.677,0.142-1.015c0.065-0.427,0.135-0.852,0.205-1.278c0.127-0.781,0.262-1.559,0.406-2.334 c0.15-0.803,0.305-1.604,0.475-2.403c0.08-0.381,0.165-0.762,0.249-1.141c0.2-0.897,0.409-1.793,0.631-2.685 c0.047-0.187,0.09-0.374,0.137-0.561c0.291-1.138,0.601-2.27,0.929-3.398c0.046-0.156,0.093-0.311,0.139-0.466 c0.31-1.05,0.637-2.095,0.98-3.135c0.04-0.12,0.077-0.24,0.117-0.36c0.373-1.117,0.766-2.229,1.175-3.334 c0.077-0.206,0.157-0.411,0.234-0.617c0.317-0.841,0.649-1.677,0.988-2.512c0.144-0.352,0.285-0.705,0.432-1.055 c0.37-0.882,0.753-1.761,1.148-2.635c0.293-0.648,0.597-1.29,0.902-1.931c0.102-0.215,0.205-0.43,0.309-0.645 c17.27-35.549,53.743-60.113,95.848-60.113c58.719,0,106.49,47.77,106.49,106.489S314.674,278.296,255.956,278.296z M365.125,62.667c0.959,5.148,1.99,14.693-0.591,25.216c-0.583,0.023-1.165,0.061-1.747,0.1c-0.317,0.021-0.635,0.045-0.951,0.07 c-0.552,0.045-1.102,0.09-1.653,0.149c-0.642,0.068-1.283,0.149-1.923,0.236c-0.557,0.076-1.111,0.161-1.667,0.251 c-0.504,0.081-1.007,0.167-1.51,0.261c-0.409,0.076-0.816,0.152-1.224,0.235c-0.843,0.172-1.683,0.356-2.521,0.561 c-0.239,0.059-0.477,0.126-0.715,0.188c-0.71,0.182-1.418,0.375-2.124,0.58c-0.293,0.085-0.586,0.171-0.879,0.262 c-0.201,0.061-0.403,0.117-0.603,0.179c-1.594-1.794-3.241-3.54-4.932-5.232c-5.691-5.691-11.904-10.787-18.55-15.225 c0.167-0.112,0.333-0.226,0.502-0.336c0.399-0.259,0.797-0.514,1.197-0.758c0.305-0.188,0.614-0.367,0.924-0.548 c0.452-0.264,0.906-0.53,1.359-0.777c0.149-0.081,0.303-0.156,0.453-0.236c1.147-0.608,2.294-1.165,3.438-1.667 c0.084-0.037,0.167-0.077,0.251-0.114c0.544-0.235,1.086-0.452,1.628-0.665c0.216-0.085,0.432-0.169,0.649-0.251 c7.26-2.74,14.233-3.529,19.823-3.529C358.432,61.617,362.397,62.153,365.125,62.667z M324.159,52.727 c-4.407,2.032-8.851,4.677-13.193,8.079c-0.083,0.065-0.165,0.132-0.247,0.198c-0.464,0.367-0.927,0.742-1.388,1.127 c-0.06,0.05-0.122,0.097-0.181,0.148c-2.16-1.046-4.349-2.03-6.56-2.946c-7.436-3.08-15.125-5.411-22.965-6.967 c2.361-3.534,5.113-6.751,8.263-9.597l1.559-1.407c9.51-7.964,20.007-11.041,25.614-12.179 C317.912,33.524,322.519,41.908,324.159,52.727z M255.962,17.451c4.311,2.952,11.795,8.97,17.422,18.238 c-2.836,3.082-5.514,6.586-7.929,10.57c-0.203,0.333-0.396,0.671-0.593,1.007c-0.382,0.655-0.759,1.317-1.127,1.998 c-0.182,0.337-0.37,0.67-0.548,1.012c-10.454-0.616-20.903,0.113-31.07,2.14c0.061-0.308,0.117-0.619,0.184-0.926 c0.081-0.374,0.17-0.741,0.259-1.109c0.83-3.445,1.996-6.786,3.52-9.992l0.762-1.601C242.57,27.64,251.172,20.683,255.962,17.451z M196.896,29.215c5.112,1.078,14.329,3.773,23.074,10.183c-1.444,3.941-2.579,8.214-3.284,12.831 c-0.045,0.285-0.08,0.572-0.121,0.858c-0.12,0.856-0.229,1.719-0.318,2.598c-0.038,0.364-0.082,0.727-0.114,1.092 c-2.266,0.787-4.51,1.64-6.722,2.555c-7.436,3.08-14.521,6.869-21.166,11.312c-0.829-4.168-1.158-8.388-0.942-12.629l0.106-2.091 C188.5,43.583,193.734,33.994,196.896,29.215z M146.829,62.68c2.727-0.514,6.697-1.052,11.382-1.052 c4.779,0,9.406,0.548,13.817,1.631c0.23,5.543,1.174,11.416,3.116,17.533c-1.792,1.593-3.538,3.239-5.229,4.93 c-5.691,5.692-10.787,11.902-15.225,18.55c-2.361-3.533-4.279-7.306-5.703-11.305l-0.708-1.991 C144.568,79.16,145.736,68.3,146.829,62.68z M136.879,103.654c2.333,5.034,5.454,10.099,9.59,15.009 c-0.79,1.629-1.53,3.278-2.245,4.936c-0.165,0.382-0.334,0.764-0.496,1.148c-0.066,0.157-0.138,0.313-0.203,0.47 c-0.154,0.372-0.297,0.746-0.448,1.119c-0.178,0.44-0.357,0.88-0.529,1.323c-0.144,0.37-0.284,0.742-0.424,1.113 c-0.23,0.607-0.458,1.216-0.679,1.828c-0.091,0.255-0.18,0.51-0.27,0.766c-0.25,0.709-0.497,1.42-0.734,2.135 c-0.068,0.205-0.134,0.411-0.201,0.615c-0.244,0.747-0.483,1.497-0.713,2.25c-0.065,0.213-0.127,0.426-0.191,0.639 c-0.218,0.73-0.432,1.462-0.637,2.197c-0.077,0.276-0.15,0.553-0.225,0.828c-0.178,0.659-0.355,1.32-0.522,1.983 c-0.099,0.394-0.194,0.789-0.29,1.184c-0.13,0.537-0.261,1.076-0.383,1.616c-0.128,0.559-0.247,1.119-0.367,1.681 c-0.079,0.372-0.16,0.742-0.235,1.115c-0.039,0.19-0.082,0.378-0.12,0.569c-3.533-2.361-6.749-5.113-9.595-8.263l-1.422-1.574 c-7.954-9.505-11.027-19.993-12.166-25.598C117.711,109.899,126.08,105.3,136.879,103.654z M101.63,171.824 c2.918-4.293,8.893-11.749,18.247-17.404c3.092,2.845,6.608,5.531,10.608,7.952c0.222,0.135,0.448,0.264,0.671,0.395 c0.773,0.455,1.558,0.904,2.366,1.34c0.315,0.17,0.628,0.347,0.946,0.513c-0.006,0.106-0.008,0.212-0.014,0.318 c-0.048,0.853-0.083,1.709-0.114,2.566c-0.01,0.298-0.026,0.596-0.034,0.894c-0.031,1.133-0.05,2.267-0.05,3.407 c0,1.024,0.013,2.048,0.039,3.071c0.01,0.425,0.031,0.848,0.047,1.273c0.021,0.595,0.039,1.189,0.068,1.784 c0.025,0.508,0.062,1.014,0.093,1.521s0.059,1.014,0.096,1.521c0.041,0.537,0.091,1.073,0.139,1.608 c0.042,0.475,0.079,0.95,0.127,1.425c0.053,0.531,0.117,1.06,0.176,1.589c0.055,0.481,0.105,0.962,0.165,1.442 c0.062,0.492,0.133,0.981,0.2,1.47c0.072,0.522,0.141,1.044,0.22,1.566c0.064,0.422,0.135,0.841,0.203,1.26 c0.096,0.594,0.192,1.188,0.296,1.782c0.058,0.325,0.122,0.649,0.182,0.973c0.098,0.533,0.193,1.068,0.298,1.599 c-0.304-0.061-0.61-0.116-0.914-0.182c-0.382-0.082-0.756-0.174-1.133-0.264c-3.441-0.829-6.777-1.995-9.98-3.517l-1.614-0.768 C111.811,185.222,104.855,176.608,101.63,171.824z M123.586,207.834c3.935,1.443,8.202,2.577,12.812,3.282 c0.36,0.056,0.722,0.102,1.084,0.153c0.778,0.106,1.561,0.206,2.358,0.287c0.376,0.04,0.751,0.084,1.13,0.118 c0.036,0.103,0.076,0.206,0.113,0.309c0.307,0.877,0.625,1.75,0.951,2.618c0.119,0.314,0.238,0.629,0.359,0.942 c0.256,0.661,0.518,1.32,0.785,1.975c0.119,0.291,0.228,0.587,0.349,0.877c0.076,0.184,0.158,0.365,0.235,0.549 c0.081,0.192,0.164,0.382,0.245,0.573c2.993,7.027,6.613,13.737,10.832,20.044c-0.348,0.069-0.696,0.147-1.044,0.209 c-0.187,0.033-0.373,0.067-0.56,0.098c-0.796,0.133-1.593,0.248-2.392,0.343c-0.082,0.01-0.164,0.021-0.245,0.03 c-2.78,0.316-5.579,0.406-8.386,0.262l-0.606-0.031c-12.943-0.821-23.218-6.363-28.208-9.616 C114.453,225.765,117.124,216.616,123.586,207.834z M158.245,281.997c-4.691,0-8.666-0.539-11.394-1.056 c-0.972-5.113-2.011-14.607,0.61-25.21c0.584-0.023,1.167-0.061,1.75-0.1c0.316-0.021,0.633-0.045,0.948-0.07 c0.555-0.045,1.108-0.09,1.662-0.15c0.607-0.064,1.213-0.142,1.819-0.223c0.594-0.08,1.186-0.169,1.78-0.266 c0.497-0.08,0.993-0.165,1.489-0.257c0.412-0.076,0.823-0.153,1.235-0.237c0.841-0.172,1.68-0.356,2.517-0.56 c0.241-0.059,0.481-0.127,0.721-0.189c0.709-0.182,1.415-0.374,2.12-0.579c0.294-0.085,0.587-0.172,0.881-0.262 c0.201-0.061,0.402-0.116,0.602-0.178c1.594,1.794,3.241,3.54,4.932,5.232c5.691,5.691,11.902,10.787,18.55,15.226 c-0.171,0.115-0.342,0.232-0.514,0.344c-0.39,0.254-0.782,0.505-1.173,0.744c-0.314,0.193-0.633,0.377-0.95,0.563 c-0.444,0.26-0.889,0.521-1.333,0.763c-0.168,0.091-0.341,0.175-0.51,0.266c-1.118,0.591-2.236,1.135-3.351,1.624 c-0.098,0.044-0.196,0.09-0.294,0.133c-0.539,0.233-1.078,0.449-1.614,0.66c-0.22,0.086-0.439,0.172-0.66,0.256 C170.804,281.209,163.834,281.997,158.245,281.997z M187.84,290.887c4.407-2.032,8.852-4.677,13.194-8.08 c0.082-0.064,0.162-0.13,0.243-0.194c0.466-0.369,0.931-0.745,1.394-1.132c0.059-0.05,0.12-0.095,0.178-0.145 c2.16,1.046,4.349,2.03,6.56,2.946c7.436,3.08,15.125,5.412,22.965,6.968c-2.361,3.534-5.113,6.75-8.263,9.596l-1.545,1.395 c-9.507,7.966-20.004,11.048-25.628,12.189C194.086,310.089,189.48,301.705,187.84,290.887z M189.706,461.467 c-25.279,0-45.845-20.566-45.845-45.845v-45.844h45.845c25.278,0,45.844,20.565,45.844,45.844v45.845H189.706z M322.293,369.777 h45.845v45.844c0,25.278-20.565,45.845-45.845,45.845h-45.844v-45.845C276.449,390.344,297.014,369.777,322.293,369.777z M261.239,476.677v20.113H250.76v-20.113v-61.055v-74.777c0.779,0.462,1.332,0.765,1.603,0.908 c0.001,0.001,0.002,0.001,0.004,0.002c0.064,0.033,0.111,0.058,0.141,0.074c0.004,0.002,0.018,0.01,0.021,0.011l3.467,1.778 l3.469-1.776c0.013-0.007,0.063-0.033,0.103-0.054c0.248-0.129,0.823-0.438,1.67-0.938v74.772V476.677z M315.101,314.399 c-5.112-1.079-14.329-3.774-23.072-10.183c1.444-3.941,2.579-8.214,3.284-12.83c0.045-0.287,0.081-0.577,0.122-0.865 c0.12-0.853,0.228-1.714,0.317-2.59c0.038-0.365,0.082-0.728,0.114-1.094c2.267-0.787,4.511-1.64,6.722-2.555 c7.435-3.08,14.521-6.869,21.165-11.312c0.829,4.168,1.158,8.388,0.942,12.629l-0.106,2.098 C323.497,300.025,318.269,309.61,315.101,314.399z M365.17,280.934c-2.727,0.514-6.697,1.052-11.382,1.052 c-4.779,0-9.405-0.548-13.817-1.63c-0.229-5.543-1.174-11.416-3.116-17.534c1.793-1.593,3.538-3.239,5.228-4.929 c5.691-5.692,10.787-11.902,15.225-18.55c2.361,3.533,4.279,7.306,5.703,11.305l0.707,1.986 C367.431,264.452,366.262,275.313,365.17,280.934z M375.121,239.96c-2.333-5.034-5.454-10.099-9.59-15.009 c1.046-2.159,2.029-4.347,2.944-6.555c3.081-7.436,5.412-15.125,6.968-22.965c3.533,2.361,6.749,5.113,9.595,8.263l1.419,1.572 c7.956,9.506,11.029,19.995,12.168,25.601C394.288,233.715,385.919,238.315,375.121,239.96z M392.122,189.195 c-3.089-2.844-6.603-5.528-10.601-7.948c-0.249-0.152-0.504-0.297-0.756-0.445c-0.741-0.436-1.494-0.866-2.267-1.283 c-0.322-0.174-0.642-0.355-0.968-0.524c0.142-2.396,0.212-4.795,0.212-7.187c0-8.048-0.79-16.045-2.35-23.884 c0.305,0.061,0.61,0.116,0.914,0.182c0.382,0.082,0.757,0.174,1.133,0.264c3.441,0.829,6.777,1.995,9.98,3.517l1.614,0.768 c11.156,5.739,18.112,14.353,21.337,19.137C407.452,176.085,401.476,183.54,392.122,189.195z"/> <path style="fill:#7A1B2E;" d="M255.956,80.529c-50.332,0-91.279,40.947-91.279,91.278s40.947,91.279,91.279,91.279 c20.572,0,40.008-6.708,56.206-19.399l-9.382-11.973c-13.495,10.573-29.685,16.161-46.824,16.161 c-41.944,0-76.068-34.124-76.068-76.068s34.124-76.068,76.068-76.068s76.069,34.124,76.069,76.068 c0,17.156-5.598,33.361-16.192,46.863l11.966,9.389c12.715-16.207,19.436-35.659,19.436-56.251 C347.235,121.476,306.288,80.529,255.956,80.529z"/> </g> <path style="fill:#E98C81;" d="M316.815,171.807h-15.21c0-25.171-20.477-45.648-45.649-45.648v-15.21 C289.514,110.949,316.815,138.25,316.815,171.807z"/> </g>
</svg>